<?xml version="1.0" standalone="no"?><!DOCTYPE svg PUBLIC "-//W3C//DTD SVG 1.1//EN" "http://www.w3.org/Graphics/SVG/1.1/DTD/svg11.dtd"><svg t="1511242248740" class="icon" style="" viewBox="0 0 1024 1024" version="1.1" xmlns="http://www.w3.org/2000/svg" p-id="4137" xmlns:xlink="http://www.w3.org/1999/xlink" width="200" height="200"><defs><style type="text/css"></style></defs><path d="M1013.11775 268.938347l-128.966462-128.96943c-0.023744-0.020776-0.041552-0.047488-0.05936-0.068264-0.023744-0.020776-0.056392-0.041552-0.068264-0.062328L755.054233 10.865926C748.097191 3.908884 738.661851 0 728.819893 0c-9.838991 0-19.27433 3.908884-26.23434 10.865926L78.027796 635.417746c-5.125773 5.125773-8.633974 11.634644-10.103145 18.734151L0.782074 979.372832c-2.525786 12.228248 1.273281 24.910603 10.100177 33.73453 7.028274 7.028274 16.496262 10.865926 26.23434 10.865926 2.496106 0 5.01002-0.252282 7.50019-0.765749l325.206095-67.151482c7.099507-1.466203 13.608378-4.977372 18.734151-10.100177L1013.11775 321.40406C1027.60763 306.920116 1027.60763 283.428227 1013.11775 268.938347zM126.679602 736.547136l160.759906 160.759906-202.585262 41.828324L126.679602 736.547136zM362.322685 867.255827 156.724881 661.655054 728.819893 89.571915l76.563078 76.566046-346.181101 346.190006c-14.48988 14.48988-14.48988 37.978801 0 52.468681 7.241972 7.241972 16.73964 10.865926 26.23434 10.865926 9.4947 0 18.9894-3.623954 26.23434-10.865926l346.187038-346.190006 76.563078 76.566046L362.322685 867.255827z" p-id="4138" fill="#d4237a"></path></svg>