<?xml version="1.0" standalone="no"?><!DOCTYPE svg PUBLIC "-//W3C//DTD SVG 1.1//EN" "http://www.w3.org/Graphics/SVG/1.1/DTD/svg11.dtd"><svg t="1511242232411" class="icon" style="" viewBox="0 0 1024 1024" version="1.1" xmlns="http://www.w3.org/2000/svg" p-id="3413" xmlns:xlink="http://www.w3.org/1999/xlink" width="200" height="200"><defs><style type="text/css"></style></defs><path d="M528.199873 777.721924 281.929797 531.451848 281.929797 304.61362l239.790127 239.798127 486.076203-486.076203 0 239.798127L528.199873 777.721924zM528.199873 64.815494C281.225803 64.815494 81.011367 265.029929 81.011367 512.004s200.214436 447.180506 447.188506 447.180506c177.286615 0 330.477418-103.167194 402.812853-252.758025l70.863446 0c-76.559402 186.318544-259.757971 317.565519-473.676299 317.565519-282.765791 0-511.996-229.222209-511.996-511.996 0-282.765791 229.230209-511.996 511.996-511.996 124.879024 0 239.278131 44.75965 328.141436 119.04707l-46.03164 46.03164C733.350271 102.4312 635.175038 64.815494 528.199873 64.815494z" p-id="3414" fill="#1afa29"></path></svg>